<?xml version="1.0" encoding="UTF-8"?>
<svg id="Layer_2" data-name="Layer 2" xmlns="http://www.w3.org/2000/svg" viewBox="0 0 209.94 58.42">
  <defs>
    <style>
      .cls-1 {
        fill: #00d680;
      }
    </style>
  </defs>
  <g id="Layer_2-2" data-name="Layer 2">
    <g>
      <g>
        <path class="cls-1" d="M39.79,37.13c-.27-5.02-2.17-9.27-5.73-12.84-3.83-3.83-8.59-5.79-14.17-5.79s-10.31,1.96-14.17,5.79c-3.83,3.86-5.71,8.53-5.71,14.11s1.87,10.31,5.71,14.17c3.86,3.83,8.59,5.71,14.17,5.71,3.8,0,7.25-.86,10.25-2.7v2.73h9.72s0-20.77-.06-21.19ZM27.19,45.87c-1.96,1.96-4.37,2.94-7.31,2.94s-5.35-.98-7.31-2.94c-1.87-1.96-2.85-4.46-2.85-7.46s.98-5.53,2.85-7.46c1.96-1.96,4.37-2.94,7.31-2.94s5.35.98,7.31,2.94c1.96,1.93,2.94,4.43,2.94,7.46s-.98,5.5-2.94,7.46Z"/>
        <path class="cls-1" d="M39.85,37.13s0,.42-.06,0h.06Z"/>
      </g>
      <path class="cls-1" d="M130.54,58.42c-5.59,0-10.34-1.89-14.19-5.74-3.85-3.85-5.74-8.6-5.74-14.19s1.89-10.26,5.74-14.11c3.85-3.85,8.6-5.81,14.19-5.81s10.34,1.96,14.19,5.81c3.85,3.85,5.81,8.53,5.81,14.11s-1.96,10.34-5.81,14.19c-3.85,3.85-8.6,5.74-14.19,5.74ZM130.54,48.91c2.94,0,5.36-.98,7.32-2.94,1.96-1.96,2.94-4.45,2.94-7.47s-.98-5.51-2.94-7.47c-1.96-1.96-4.38-2.94-7.32-2.94s-5.36.98-7.32,2.94c-1.89,1.96-2.87,4.45-2.87,7.47s.98,5.51,2.87,7.47c1.96,1.96,4.38,2.94,7.32,2.94Z"/>
      <path class="cls-1" d="M199.06,18.7h10.88l-12.62,39.7h-9.77l-7.3-24.06-7.31,24.06h-9.76l-12.63-39.7h10.88l6.75,24.38,7.23-24.38h9.69l7.22,24.46,6.75-24.46Z"/>
      <path class="cls-1" d="M92.19,0c-12.42,0-18.66,5.44-18.84,16.31v22.23c-.12,4.99-4.31,9.03-9.33,9.03s-9.27-4.16-9.27-9.27,4.16-9.27,9.27-9.27h6.18v-10.4h-6.18c-3.36,0-6.51.83-9.27,2.35-6.18,3.3-10.4,9.84-10.4,17.32,0,10.85,8.82,19.67,19.67,19.67,3.36,0,6.57-.86,9.33-2.38,6.15-3.33,10.34-9.84,10.34-17.29v-9.27h8.56v-10.4h-8.56v-1.84c0-5.14,2.82-7.73,8.5-7.73,1.46,0,2.59,0,3.3.09v48.14h10.37V1.69c-5.62-1.13-10.19-1.69-13.67-1.69Z"/>
    </g>
  </g>
</svg>